<mxfile host="app.diagrams.net" modified="2023-12-28T20:46:05.932Z" agent="Mozilla/5.0 (Windows NT 10.0; Win64; x64; rv:121.0) Gecko/20100101 Firefox/121.0" etag="NAuLtcwPdqJeBuaiq3po" version="22.1.15" type="github">
  <diagram name="Page-1" id="RQNaO-Krv74Vgq13Pi5W">
    <mxGraphModel dx="2140" dy="530" grid="1" gridSize="10" guides="1" tooltips="1" connect="1" arrows="1" fold="1" page="1" pageScale="1" pageWidth="850" pageHeight="1100" math="0" shadow="0">
      <root>
        <mxCell id="0" />
        <mxCell id="1" parent="0" />
        <mxCell id="rdrlX59q383eema9n9BO-31" value="" style="rounded=0;whiteSpace=wrap;html=1;dashed=1;" parent="1" vertex="1">
          <mxGeometry x="20" y="140" width="430" height="200" as="geometry" />
        </mxCell>
        <mxCell id="rdrlX59q383eema9n9BO-1" value="" style="shape=image;verticalLabelPosition=bottom;labelBackgroundColor=default;verticalAlign=top;aspect=fixed;imageAspect=0;image=data:image/svg+xml,PHN2ZyBzdHlsZT0iYmFja2dyb3VuZDogd2hpdGU7IiB2aWV3Qm94PSItMjUgLTI1IDYyNSA2MjUiIGlkPSJzdmdXb3JrZXJBcmVhIiBoZWlnaHQ9IjEwMCUiIHdpZHRoPSIxMDAlIiB4bWxuczp4bGluaz0iaHR0cDovL3d3dy53My5vcmcvMTk5OS94bGluayIgdmVyc2lvbj0iMS4xIiB4bWxucz0iaHR0cDovL3d3dy53My5vcmcvMjAwMC9zdmciPjxkZWZzIGlkPSJkZWZzZG9jIj48cGF0dGVybiBwYXR0ZXJuVHJhbnNmb3JtPSJyb3RhdGUoMzUpIiBwYXR0ZXJuVW5pdHM9InVzZXJTcGFjZU9uVXNlIiBoZWlnaHQ9IjEwIiB3aWR0aD0iMTAiIHk9IjAiIHg9IjAiIGlkPSJwYXR0ZXJuQm9vbCI+PGNpcmNsZSBzdHlsZT0ic3Ryb2tlOiBub25lO2ZpbGw6ICNmZjAwMDA3MDsiIHI9IjQiIGN5PSI1IiBjeD0iNSIvPjwvcGF0dGVybj48L2RlZnM+PGcgY2xhc3M9ImNvc2l0byIgaWQ9ImZpbGVJbXAtNDk0NDg3MjA2Ij48cGF0aCBkPSJNNjIuNSA0MTEuNTE2NEM5NC44OTE2IDM1MS44MDM2IDE1My45NDAzIDMyNC4yNjM3IDIwOS4wMjc5IDMzNi4zODEzIDIyNy4zMDk3IDM0MC4zNDIzIDI0NC40OTc3IDM0OS42MDA1IDI2Mi4xMzExIDM1Ni40Mjg4IDI3OS43NTY2IDM2My4yNTcxIDI5Ny4xNjM0IDM3Mi4wNjk5IDMxNS40NTMgMzc2LjI1NzUgMzI4LjQ0NTYgMzc5LjM0MzUgMzQyLjk5MjkgMzc3LjE0MDMgMzU2LjY0OTYgMzc1LjM3NDcgMzY5LjIxMjQgMzczLjgzNTYgMzcwLjc1MTYgMzY4Ljk5MTcgMzY0LjM2MDggMzU3Ljk3NTcgMzUwLjkyMjggMzM0LjgzNDQgMzM3LjI2NjEgMzExLjcwMDggMzIzLjgyMDUgMjg4LjU2NzQgMzIzLjgyMDUgMjg4LjU2NzMgMjYxLjY4NTcgMTgyLjE0MjIgMjYxLjY4NTcgMTgyLjE0MjIgMjU0Ljg1NzQgMTcwLjQ2MjIgMjUyLjg3MyAxNzAuNjg4NyAyNDYuMDQ0NiAxODIuMzYxIDI0Ni4wNDQ2IDE4Mi4zNjEgMTk2LjQ2NSAyNjYuOTcyOSAxOTYuNDY1IDI2Ni45NzMgMTk0LjkyNTkgMjY5LjYxMzYgMTkzLjgyNDMgMjcyLjY5OTcgMTkyLjcxNDkgMjc0LjkwMjkgMjA5LjY4NDIgMjgyLjQwMzEgMjI1Ljk5NzEgMjg4LjU2NzMgMjQxLjYzODMgMjk2LjQ5NzMgMjUwLjY2OTggMzAxLjEyMjQgMjU4LjU5OTcgMzA3Ljk1ODYgMjY2LjUzNzQgMzE0LjU2ODEgMjcwLjA1MzIgMzE3LjQyNzYgMjcxLjYwMDEgMzIyLjQ5OCAyNzQuMjQ4NiAzMjYuNDY3IDI2OS42MTU3IDMyNi4wMjE2IDI2NC43NzE4IDMyNi40NjY5IDI2MC4xNDY2IDMyNS4zNjU0IDI0Mi4wNzU4IDMyMS4xNzc3IDIyNC4yMzE1IDMxNC41NjgxIDIwNS45NDE5IDMxMi41ODM3IDE3My4zMzE1IDMwOS4wNjAxIDE0MS44MjI3IDMxNy44NzI5IDExMS4xOTY4IDMyOC4yMjQ4IDEwNy44OTIgMzI5LjMyNjQgMTAzLjkzMDkgMzI4LjQ0MzUgMTAwLjE4MDggMzI4LjQ0MzYgMTAxLjA2MzYgMzI1LjEzODggMTAxLjA2MzYgMzIxLjM5NjQgMTAyLjYwMjggMzE4LjUyOTIgMTQ4LjY1MSAyMzguMzMxNCAxOTUuNTkgMTU4LjEzMzcgMjQyLjUyMTEgNzguMTQ2OSAyNDkuNzg2OSA2NS41ODQgMjU3LjcyNDcgNjYuMDI5MyAyNjQuOTkwNSA3OC41ODQ0IDMyMC4wNzAzIDE3Mi42NzMyIDM3NC45MzkyIDI2Ni41MzU0IDQzMC4wMjY4IDM2MC42MTY1IDQ0Mi4xMzY1IDM4MS41NTQ2IDQ0MC4xNTk5IDM5NC4zMjg0IDQxOS40NDg0IDQwNi44ODM1IDM3Mi41MTcyIDQzNS43NTE1IDMyMy44MjA1IDQzOS40OTM4IDI3NC4wMjIxIDQxNC4xNTcxIDI2MS45MTIzIDQwNy45ODUgMjQ5LjM0OTQgNDAyLjkyMjQgMjM3LjIyNCAzOTYuNTMxNiAxOTguNDQ5NCAzNzYuMDM4OCAxNTguMzQ2NiAzNzYuMDM4OCAxMTcuODA2MyAzODkuNzAzMiAxMDIuODIxNSAzOTQuNTQ3MSA4OC41MDg2IDQwMS4zNzU1IDczLjk2MTMgNDA3LjExIDcxLjA5NCA0MDguMjAzOCA2OC4yMzQ1IDQwOS4zMTMyIDYyLjUgNDExLjUxNjQgNjIuNSA0MTEuNTE2NCA2Mi41IDQxMS41MTY0IDYyLjUgNDExLjUxNjQiIGNsYXNzPSJncm91cGVkIiBmaWxsPSIjMDA3OEQ0IiBpZD0icGF0aEltcC03MzUxMjU3MjQiLz48L2c+PC9zdmc+;" parent="1" vertex="1">
          <mxGeometry x="121" y="270" width="50" height="50" as="geometry" />
        </mxCell>
        <mxCell id="rdrlX59q383eema9n9BO-51" style="edgeStyle=orthogonalEdgeStyle;rounded=0;orthogonalLoop=1;jettySize=auto;html=1;entryX=0.5;entryY=0;entryDx=0;entryDy=0;fontFamily=Helvetica;fontSize=12;fontColor=default;" parent="1" source="rdrlX59q383eema9n9BO-3" target="rdrlX59q383eema9n9BO-31" edge="1">
          <mxGeometry relative="1" as="geometry" />
        </mxCell>
        <mxCell id="rdrlX59q383eema9n9BO-3" value="" style="image;sketch=0;aspect=fixed;html=1;points=[];align=center;fontSize=12;image=img/lib/mscae/Databricks.svg;" parent="1" vertex="1">
          <mxGeometry x="208.96" y="60" width="52.08" height="50" as="geometry" />
        </mxCell>
        <mxCell id="rdrlX59q383eema9n9BO-53" style="edgeStyle=orthogonalEdgeStyle;rounded=0;orthogonalLoop=1;jettySize=auto;html=1;entryX=0.5;entryY=1;entryDx=0;entryDy=0;fontFamily=Helvetica;fontSize=12;fontColor=default;" parent="1" source="rdrlX59q383eema9n9BO-6" target="rdrlX59q383eema9n9BO-31" edge="1">
          <mxGeometry relative="1" as="geometry" />
        </mxCell>
        <mxCell id="rdrlX59q383eema9n9BO-6" style="shape=image;editableCssRules=.*;image=data:image/svg+xml,PHN2ZyB2aWV3Qm94PSIwIDAgMjQgMjQiIHhtbG5zPSJodHRwOi8vd3d3LnczLm9yZy8yMDAwL3N2ZyI+PHN0eWxlPip7ZmlsbDojRkY2OTRCfTwvc3R5bGU+PHBhdGggZD0iTTE3LjkwMDQgOS4zNzYzYTguMTQ4OCA4LjE0ODggMCAwIDAtMy4wNDIxLTMuMTIwNmwxLjc3MDguODM4NWExMC4yODc0IDEwLjI4NzQgMCAwIDEgMy43NCAzLjAwMDdsMy4yMzQtNS45Mjk1YTIuODU0NiAyLjg1NDYgMCAwIDAtLjA2MTEtMi45NjA0QzIyLjc1NjYuMDM3MSAyMS4yMTEyLS4zNDA5IDE5Ljk3NTQuMzMyN2wtNS44NzQ5IDMuMjEwMWE0LjM2MTIgNC4zNjEyIDAgMCAxLTQuMTc2MSAwTDQuMTc2OS40MDhhMi44NTQ1IDIuODU0NSAwIDAgMC0yLjk1OTIuMDYzMmMtMS4xNjczLjc4NTMtMS41NDUyIDIuMzMtLjg3MjMgMy41NjU1TDMuNTUgOS45MTA2YTQuMzYxMiA0LjM2MTIgMCAwIDEgMCA0LjE3NzJsLTMuMTI3MiA1Ljc0M2EyLjg2IDIuODYgMCAwIDAgLjA4NSAyLjk5NzRjLjc5NCAxLjE0MzggMi4zMjI1IDEuNTA1NCAzLjU0NDguODM4NWw2LjA1ODEtMy4zMDQ5YTEwLjI4NzcgMTAuMjg3NyAwIDAgMS0zLjAwNTEtMy43NDU0bC0uODM3NC0xLjc3MDhhOC4xNDggOC4xNDggMCAwIDAgMy4xMjA2IDMuMDQyMWwxMC41ODMyIDUuNzc5YzEuMjIxMy42NjYgMi43NDgxLjMwNTUgMy41NDI2LS44MzYzYTIuODY5OSAyLjg2OTkgMCAwIDAgLjA3OTYtMy4wMDE4TDE3LjkwMDQgOS4zNzYzem0zLjM4MDEtNy43MzUxYy42MDIyIDAgMS4wOTA0LjQ4ODIgMS4wOTA0IDEuMDkwNHMtLjQ4ODIgMS4wOTA0LTEuMDkwNCAxLjA5MDQtMS4wOTA0LS40ODgyLTEuMDkwNC0xLjA5MDQuNDg4Mi0xLjA5MDQgMS4wOTA0LTEuMDkwNHpNMi43NDQyIDMuODIyYy0uNjAyMiAwLTEuMDkwNC0uNDg4Mi0xLjA5MDQtMS4wOTA0cy40ODgyLTEuMDkwNCAxLjA5MDQtMS4wOTA0IDEuMDkwNC40ODgyIDEuMDkwNCAxLjA5MDRTMy4zNDY0IDMuODIyIDIuNzQ0MiAzLjgyMnptMCAxOC41MzYzYy0uNjAyMiAwLTEuMDkwNC0uNDg4Mi0xLjA5MDQtMS4wOTA0IDAtLjYwMjIuNDg4Mi0xLjA5MDQgMS4wOTA0LTEuMDkwNHMxLjA5MDQuNDg4MiAxLjA5MDQgMS4wOTA0YzAgLjYwMjItLjQ4ODIgMS4wOTA0LTEuMDkwNCAxLjA5MDR6bTEwLjM1ODUtMTEuNDQ4OWMtMS4yMDA4LS4wMDM1LTIuMTc3Ljk2NzItMi4xODA1IDIuMTY3OWEyLjE3MzggMi4xNzM4IDAgMCAwIC43MDUyIDEuNjA5MWMtMS40ODcyLS4yMDkxLTIuNTIzNC0xLjU4NDMtMi4zMTQyLTMuMDcxNi4yMDkxLTEuNDg3MiAxLjU4NDMtMi41MjM0IDMuMDcxNi0yLjMxNDJhMi43MTk0IDIuNzE5NCAwIDAgMSAyLjMxNDIgMi4zMTQyIDIuMTYyMyAyLjE2MjMgMCAwIDAtMS41OTYzLS43MDU0em04LjE3NzggMTEuNDQ4OWMtLjYwMjIgMC0xLjA5MDQtLjQ4ODItMS4wOTA0LTEuMDkwNCAwLS42MDIyLjQ4ODItMS4wOTA0IDEuMDkwNC0xLjA5MDRzMS4wOTA0LjQ4ODIgMS4wOTA0IDEuMDkwNGMwIC42MDIyLS40ODgyIDEuMDkwNC0xLjA5MDQgMS4wOTA0eiIvPjwvc3ZnPg==;" parent="1" vertex="1">
          <mxGeometry x="212.5" y="380" width="45" height="60" as="geometry" />
        </mxCell>
        <mxCell id="rdrlX59q383eema9n9BO-48" value="" style="edgeStyle=orthogonalEdgeStyle;rounded=0;orthogonalLoop=1;jettySize=auto;html=1;fontFamily=Helvetica;fontSize=12;fontColor=default;" parent="1" source="rdrlX59q383eema9n9BO-7" target="rdrlX59q383eema9n9BO-3" edge="1">
          <mxGeometry relative="1" as="geometry" />
        </mxCell>
        <mxCell id="rdrlX59q383eema9n9BO-7" value="" style="shape=image;verticalLabelPosition=bottom;verticalAlign=top;imageAspect=0;aspect=fixed;image=data:image/svg+xml,PHN2ZyB4bWxucz0iaHR0cDovL3d3dy53My5vcmcvMjAwMC9zdmciIGlkPSJiYzkzMTY5YS0yNGM0LTQ2ODYtOWYzNy1jN2U0ZjUzYjNkMzQiIHdpZHRoPSIxOCIgaGVpZ2h0PSIxOCIgdmlld0JveD0iMCAwIDE4IDE4Ij4mI3hhOyAgPGRlZnM+JiN4YTsgICAgPHJhZGlhbEdyYWRpZW50IGlkPSJmYjExNGM5My03YzE2LTQ1NDAtODk5YS0wNzk2MDQxNjI5ZTYiIGN4PSI5IiBjeT0iOSIgcj0iOC41IiBncmFkaWVudFVuaXRzPSJ1c2VyU3BhY2VPblVzZSI+JiN4YTsgICAgICA8c3RvcCBvZmZzZXQ9IjAuMTgiIHN0b3AtY29sb3I9IiM1ZWEwZWYiLz4mI3hhOyAgICAgIDxzdG9wIG9mZnNldD0iMC41NiIgc3RvcC1jb2xvcj0iIzVjOWZlZSIvPiYjeGE7ICAgICAgPHN0b3Agb2Zmc2V0PSIwLjY5IiBzdG9wLWNvbG9yPSIjNTU5Y2VkIi8+JiN4YTsgICAgICA8c3RvcCBvZmZzZXQ9IjAuNzgiIHN0b3AtY29sb3I9IiM0YTk3ZTkiLz4mI3hhOyAgICAgIDxzdG9wIG9mZnNldD0iMC44NiIgc3RvcC1jb2xvcj0iIzM5OTBlNCIvPiYjeGE7ICAgICAgPHN0b3Agb2Zmc2V0PSIwLjkzIiBzdG9wLWNvbG9yPSIjMjM4N2RlIi8+JiN4YTsgICAgICA8c3RvcCBvZmZzZXQ9IjAuOTkiIHN0b3AtY29sb3I9IiMwODdiZDYiLz4mI3hhOyAgICAgIDxzdG9wIG9mZnNldD0iMSIgc3RvcC1jb2xvcj0iIzAwNzhkNCIvPiYjeGE7ICAgIDwvcmFkaWFsR3JhZGllbnQ+JiN4YTsgICAgPHJhZGlhbEdyYWRpZW50IGlkPSJlYzQ3OGJkMy01YjM4LTRlN2YtYjY2MS0xMWYzNTU1NzhiZmYiIGN4PSIzOC45NSIgY3k9IjE4Mi4wNyIgcj0iOS44OCIgZ3JhZGllbnRUcmFuc2Zvcm09InRyYW5zbGF0ZSgtMjguNzEgLTE2My4yNCkgc2NhbGUoMC45NCAwLjk0KSIgZ3JhZGllbnRVbml0cz0idXNlclNwYWNlT25Vc2UiPiYjeGE7ICAgICAgPHN0b3Agb2Zmc2V0PSIwLjI3IiBzdG9wLWNvbG9yPSIjZmZkNzBmIi8+JiN4YTsgICAgICA8c3RvcCBvZmZzZXQ9IjAuNDkiIHN0b3AtY29sb3I9IiNmZmNiMTIiLz4mI3hhOyAgICAgIDxzdG9wIG9mZnNldD0iMC44OCIgc3RvcC1jb2xvcj0iI2ZlYWMxOSIvPiYjeGE7ICAgICAgPHN0b3Agb2Zmc2V0PSIxIiBzdG9wLWNvbG9yPSIjZmVhMTFiIi8+JiN4YTsgICAgPC9yYWRpYWxHcmFkaWVudD4mI3hhOyAgPC9kZWZzPiYjeGE7ICA8dGl0bGU+SWNvbi1zZWN1cml0eS0yNDU8L3RpdGxlPiYjeGE7ICA8cGF0aCBpZD0iYWFjZjgzMTEtYTMxNy00MDBmLWI2MTMtNzRiZDAwZGE1Y2UzIiBkPSJNOSwuNUE4LjUsOC41LDAsMSwwLDE3LjUsOSw4LjUxLDguNTEsMCwwLDAsOSwuNVpNOSwxNi4zNEE3LjM0LDcuMzQsMCwxLDEsMTYuMzQsOSw3LjM0LDcuMzQsMCwwLDEsOSwxNi4zNFoiIGZpbGw9InVybCgjZmIxMTRjOTMtN2MxNi00NTQwLTg5OWEtMDc5NjA0MTYyOWU2KSIvPiYjeGE7ICA8Y2lyY2xlIGN4PSI5IiBjeT0iOSIgcj0iNy4zNCIgZmlsbD0iI2ZmZiIvPiYjeGE7ICA8Zz4mI3hhOyAgICA8cGF0aCBpZD0iYmQ5ODNjNDEtZGI3My00MGVjLWE0ZjQtZGExMjEzZmM5OTI0IiBkPSJNMTMuNDQsNy4zM2ExLjg0LDEuODQsMCwwLDAsMC0yLjU5aDBMMTAuMjksMS41OGExLjgzLDEuODMsMCwwLDAtMi41OCwwaDBMNC41Niw0Ljc0YTEuODQsMS44NCwwLDAsMCwwLDIuNTlMNy4xOCwxMGEuNTEuNTEsMCwwLDEsLjE1LjM2djQuODhhLjYzLjYzLDAsMCwwLC4xOC40NGwxLjIsMS4yYS40MS40MSwwLDAsMCwuNTgsMGwxLjE2LTEuMTZoMGwuNjgtLjY4YS4yNS4yNSwwLDAsMCwwLS4zNGwtLjQ5LS40OWEuMjcuMjcsMCwwLDEsMC0uMzdsLjQ5LS40OWEuMjUuMjUsMCwwLDAsMC0uMzRsLS40OS0uNDlhLjI3LjI3LDAsMCwxLDAtLjM3bC40OS0uNDlhLjI1LjI1LDAsMCwwLDAtLjM0bC0uNjgtLjY5di0uMjVaTTksMi4zNUExLDEsMCwwLDEsOSw0LjQyLDEsMSwwLDEsMSw5LDIuMzVaIiBmaWxsPSJ1cmwoI2VjNDc4YmQzLTViMzgtNGU3Zi1iNjYxLTExZjM1NTU3OGJmZikiLz4mI3hhOyAgICA8cGF0aCBpZD0iYWQyZTdlNDQtOWJmZC00Nzc1LThiZjQtOGVmMjZhNTQ0OTIxIiBkPSJNOC4xOCwxNS4zaDBhLjIzLjIzLDAsMCwwLC4zOC0uMTd2LTRhLjI0LjI0LDAsMCwwLS4xMS0uMmgwYS4yMi4yMiwwLDAsMC0uMzQuMnY0QS4yOC4yOCwwLDAsMCw4LjE4LDE1LjNaIiBmaWxsPSIjZmY5MzAwIiBvcGFjaXR5PSIwLjc1Ii8+JiN4YTsgICAgPHJlY3QgaWQ9ImE5OTZmYmZmLTM5MzYtNGIyNC1iNDA3LTM2OTMzNmMxNDNiYSIgeD0iNi40OCIgeT0iNS43OSIgd2lkdGg9IjUuMTciIGhlaWdodD0iMC42MSIgcng9IjAuMjgiIGZpbGw9IiNmZjkzMDAiIG9wYWNpdHk9IjAuNzUiLz4mI3hhOyAgICA8cmVjdCBpZD0iYmIxMmQzMWMtMzM1Mi00YTE4LTg3ZGQtYTE2OWE0YTg3MjFkIiB4PSI2LjQ4IiB5PSI2Ljc4IiB3aWR0aD0iNS4xNyIgaGVpZ2h0PSIwLjYxIiByeD0iMC4yOCIgZmlsbD0iI2ZmOTMwMCIgb3BhY2l0eT0iMC43NSIvPiYjeGE7ICA8L2c+JiN4YTs8L3N2Zz4=" parent="1" vertex="1">
          <mxGeometry x="66" y="60" width="50" height="50" as="geometry" />
        </mxCell>
        <mxCell id="rdrlX59q383eema9n9BO-29" style="edgeStyle=orthogonalEdgeStyle;rounded=0;orthogonalLoop=1;jettySize=auto;html=1;exitX=1;exitY=0.5;exitDx=0;exitDy=0;" parent="1" source="rdrlX59q383eema9n9BO-12" target="rdrlX59q383eema9n9BO-21" edge="1">
          <mxGeometry relative="1" as="geometry" />
        </mxCell>
        <mxCell id="rdrlX59q383eema9n9BO-12" value="" style="rounded=0;whiteSpace=wrap;html=1;dashed=1;" parent="1" vertex="1">
          <mxGeometry x="-490" y="140" width="390" height="200" as="geometry" />
        </mxCell>
        <mxCell id="rdrlX59q383eema9n9BO-25" style="edgeStyle=orthogonalEdgeStyle;rounded=0;orthogonalLoop=1;jettySize=auto;html=1;" parent="1" source="rdrlX59q383eema9n9BO-14" target="rdrlX59q383eema9n9BO-20" edge="1">
          <mxGeometry relative="1" as="geometry" />
        </mxCell>
        <mxCell id="rdrlX59q383eema9n9BO-14" value="" style="image;aspect=fixed;html=1;points=[];align=center;fontSize=12;image=img/lib/azure2/databases/SQL_Database.svg;" parent="1" vertex="1">
          <mxGeometry x="-427.75" y="210" width="40.5" height="54" as="geometry" />
        </mxCell>
        <mxCell id="rdrlX59q383eema9n9BO-20" value="" style="shape=image;verticalLabelPosition=bottom;verticalAlign=top;imageAspect=0;aspect=fixed;image=data:image/svg+xml,PHN2ZyB4bWxucz0iaHR0cDovL3d3dy53My5vcmcvMjAwMC9zdmciIGlkPSJiZTAyZTkyYS1mMWFjLTQzNmItODVjZC1jN2ZhNmQ3MWE3YWIiIHdpZHRoPSIxOCIgaGVpZ2h0PSIxOCIgdmlld0JveD0iMCAwIDE4IDE4Ij4mI3hhOyAgICA8ZGVmcz4mI3hhOyAgICAgICAgPGxpbmVhckdyYWRpZW50IGlkPSJhMmY1YTM5OS1lNTEzLTRiNWQtOWI1MC1lNWNiNjgwNjMyM2QiIHgxPSI5LjI0IiB5MT0iMC45NiIgeDI9IjguODUiIHkyPSIxNi41MiIgZ3JhZGllbnRVbml0cz0idXNlclNwYWNlT25Vc2UiPiYjeGE7ICAgICAgICAgICAgPHN0b3Agb2Zmc2V0PSIwIiBzdG9wLWNvbG9yPSIjMzJkNGY1Ii8+JiN4YTsgICAgICAgICAgICA8c3RvcCBvZmZzZXQ9IjAuMjMiIHN0b3AtY29sb3I9IiMzMWQwZjEiLz4mI3hhOyAgICAgICAgICAgIDxzdG9wIG9mZnNldD0iMC40NiIgc3RvcC1jb2xvcj0iIzJjYzNlNiIvPiYjeGE7ICAgICAgICAgICAgPHN0b3Agb2Zmc2V0PSIwLjciIHN0b3AtY29sb3I9IiMyNWFmZDQiLz4mI3hhOyAgICAgICAgICAgIDxzdG9wIG9mZnNldD0iMC45NCIgc3RvcC1jb2xvcj0iIzFjOTJiYSIvPiYjeGE7ICAgICAgICAgICAgPHN0b3Agb2Zmc2V0PSIxIiBzdG9wLWNvbG9yPSIjMTk4YWIzIi8+JiN4YTsgICAgICAgIDwvbGluZWFyR3JhZGllbnQ+JiN4YTsgICAgPC9kZWZzPiYjeGE7ICAgIDx0aXRsZT5JY29uLWFuYWx5dGljcy0xNTA8L3RpdGxlPiYjeGE7ICAgIDxwYXRoIGQ9Ik0xNy4xLDMuNkg5LjY5YS4zNC4zNCwwLDAsMS0uMjItLjA3TDcuMzUsMi4xMmEuNDMuNDMsMCwwLDAtLjIyLS4wNkguOWEuNC40LDAsMCwwLS40LjM5djEzLjFhLjQuNCwwLDAsMCwuNC4zOUgxNy4xYS40LjQsMCwwLDAsLjQtLjM5VjRBLjQuNCwwLDAsMCwxNy4xLDMuNloiIGZpbGw9IiMwMDViYTEiLz4mI3hhOyAgICA8cmVjdCB4PSIyLjA1IiB5PSIyLjgyIiB3aWR0aD0iMy44NiIgaGVpZ2h0PSIwLjc3IiByeD0iMC4xNiIgZmlsbD0iI2ZmZiIvPiYjeGE7ICAgIDxyZWN0IHg9IjIuMDUiIHk9IjIuODIiIHdpZHRoPSIwLjc3IiBoZWlnaHQ9IjAuNzciIHJ4PSIwLjExIiBmaWxsPSIjMWFjM2YyIi8+JiN4YTsgICAgPHBhdGggZD0iTTE3LjEsMy41OEg5YS4zNi4zNiwwLDAsMC0uMjguMTJMNy4zNyw1YS40My40MywwLDAsMS0uMjguMTFILjlhLjQuNCwwLDAsMC0uNC40djEwYS40LjQsMCwwLDAsLjQuMzlIMTcuMWEuNC40LDAsMCwwLC40LS4zOVY0QS40LjQsMCwwLDAsMTcuMSwzLjU4WiIgZmlsbD0idXJsKCNhMmY1YTM5OS1lNTEzLTRiNWQtOWI1MC1lNWNiNjgwNjMyM2QpIi8+JiN4YTsgICAgPHBhdGggZD0iTTEwLjE4LDUuN2EuMTUuMTUsMCwwLDAtLjA4LDBzLS4wOSwwLS4xMy4wN0w2LjgxLDEwLjM2YS4xNi4xNiwwLDAsMCwwLC4xNi4xOS4xOSwwLDAsMCwuMTUuMUg4LjgzTDgsMTMuNGEuMTMuMTMsMCwwLDAsLjA3LjE4LjEuMSwwLDAsMCwuMDcsMGMuMDYsMCwuMDksMCwuMTMtLjA3bDMuMjYtNC42NnMwLS4wNiwwLS4xYS4xNy4xNywwLDAsMC0uMTctLjE2aC0ybC44MS0yLjczQS4xMy4xMywwLDAsMCwxMC4xOCw1LjdaIiBmaWxsPSIjZmZmIi8+JiN4YTs8L3N2Zz4=" parent="1" vertex="1">
          <mxGeometry x="-200" y="210" width="53" height="53" as="geometry" />
        </mxCell>
        <mxCell id="rdrlX59q383eema9n9BO-33" style="edgeStyle=orthogonalEdgeStyle;rounded=0;orthogonalLoop=1;jettySize=auto;html=1;exitX=1;exitY=0.5;exitDx=0;exitDy=0;entryX=0;entryY=0.5;entryDx=0;entryDy=0;fontFamily=Helvetica;fontSize=12;fontColor=default;" parent="1" source="rdrlX59q383eema9n9BO-21" target="rdrlX59q383eema9n9BO-22" edge="1">
          <mxGeometry relative="1" as="geometry" />
        </mxCell>
        <mxCell id="rdrlX59q383eema9n9BO-21" value="" style="shape=image;verticalLabelPosition=bottom;verticalAlign=top;imageAspect=0;aspect=fixed;image=data:image/svg+xml,PHN2ZyB4bWxucz0iaHR0cDovL3d3dy53My5vcmcvMjAwMC9zdmciIGlkPSJiZTAyZTkyYS1mMWFjLTQzNmItODVjZC1jN2ZhNmQ3MWE3YWIiIHdpZHRoPSIxOCIgaGVpZ2h0PSIxOCIgdmlld0JveD0iMCAwIDE4IDE4Ij4mI3hhOyAgICA8ZGVmcz4mI3hhOyAgICAgICAgPGxpbmVhckdyYWRpZW50IGlkPSJhMmY1YTM5OS1lNTEzLTRiNWQtOWI1MC1lNWNiNjgwNjMyM2QiIHgxPSI5LjI0IiB5MT0iMC45NiIgeDI9IjguODUiIHkyPSIxNi41MiIgZ3JhZGllbnRVbml0cz0idXNlclNwYWNlT25Vc2UiPiYjeGE7ICAgICAgICAgICAgPHN0b3Agb2Zmc2V0PSIwIiBzdG9wLWNvbG9yPSIjMzJkNGY1Ii8+JiN4YTsgICAgICAgICAgICA8c3RvcCBvZmZzZXQ9IjAuMjMiIHN0b3AtY29sb3I9IiMzMWQwZjEiLz4mI3hhOyAgICAgICAgICAgIDxzdG9wIG9mZnNldD0iMC40NiIgc3RvcC1jb2xvcj0iIzJjYzNlNiIvPiYjeGE7ICAgICAgICAgICAgPHN0b3Agb2Zmc2V0PSIwLjciIHN0b3AtY29sb3I9IiMyNWFmZDQiLz4mI3hhOyAgICAgICAgICAgIDxzdG9wIG9mZnNldD0iMC45NCIgc3RvcC1jb2xvcj0iIzFjOTJiYSIvPiYjeGE7ICAgICAgICAgICAgPHN0b3Agb2Zmc2V0PSIxIiBzdG9wLWNvbG9yPSIjMTk4YWIzIi8+JiN4YTsgICAgICAgIDwvbGluZWFyR3JhZGllbnQ+JiN4YTsgICAgPC9kZWZzPiYjeGE7ICAgIDx0aXRsZT5JY29uLWFuYWx5dGljcy0xNTA8L3RpdGxlPiYjeGE7ICAgIDxwYXRoIGQ9Ik0xNy4xLDMuNkg5LjY5YS4zNC4zNCwwLDAsMS0uMjItLjA3TDcuMzUsMi4xMmEuNDMuNDMsMCwwLDAtLjIyLS4wNkguOWEuNC40LDAsMCwwLS40LjM5djEzLjFhLjQuNCwwLDAsMCwuNC4zOUgxNy4xYS40LjQsMCwwLDAsLjQtLjM5VjRBLjQuNCwwLDAsMCwxNy4xLDMuNloiIGZpbGw9IiMwMDViYTEiLz4mI3hhOyAgICA8cmVjdCB4PSIyLjA1IiB5PSIyLjgyIiB3aWR0aD0iMy44NiIgaGVpZ2h0PSIwLjc3IiByeD0iMC4xNiIgZmlsbD0iI2ZmZiIvPiYjeGE7ICAgIDxyZWN0IHg9IjIuMDUiIHk9IjIuODIiIHdpZHRoPSIwLjc3IiBoZWlnaHQ9IjAuNzciIHJ4PSIwLjExIiBmaWxsPSIjMWFjM2YyIi8+JiN4YTsgICAgPHBhdGggZD0iTTE3LjEsMy41OEg5YS4zNi4zNiwwLDAsMC0uMjguMTJMNy4zNyw1YS40My40MywwLDAsMS0uMjguMTFILjlhLjQuNCwwLDAsMC0uNC40djEwYS40LjQsMCwwLDAsLjQuMzlIMTcuMWEuNC40LDAsMCwwLC40LS4zOVY0QS40LjQsMCwwLDAsMTcuMSwzLjU4WiIgZmlsbD0idXJsKCNhMmY1YTM5OS1lNTEzLTRiNWQtOWI1MC1lNWNiNjgwNjMyM2QpIi8+JiN4YTsgICAgPHBhdGggZD0iTTEwLjE4LDUuN2EuMTUuMTUsMCwwLDAtLjA4LDBzLS4wOSwwLS4xMy4wN0w2LjgxLDEwLjM2YS4xNi4xNiwwLDAsMCwwLC4xNi4xOS4xOSwwLDAsMCwuMTUuMUg4LjgzTDgsMTMuNGEuMTMuMTMsMCwwLDAsLjA3LjE4LjEuMSwwLDAsMCwuMDcsMGMuMDYsMCwuMDksMCwuMTMtLjA3bDMuMjYtNC42NnMwLS4wNiwwLS4xYS4xNy4xNywwLDAsMC0uMTctLjE2aC0ybC44MS0yLjczQS4xMy4xMywwLDAsMCwxMC4xOCw1LjdaIiBmaWxsPSIjZmZmIi8+JiN4YTs8L3N2Zz4=" parent="1" vertex="1">
          <mxGeometry x="116" y="210" width="60" height="60" as="geometry" />
        </mxCell>
        <mxCell id="rdrlX59q383eema9n9BO-22" value="" style="shape=image;verticalLabelPosition=bottom;verticalAlign=top;imageAspect=0;aspect=fixed;image=data:image/svg+xml,PHN2ZyB4bWxucz0iaHR0cDovL3d3dy53My5vcmcvMjAwMC9zdmciIGlkPSJiZTAyZTkyYS1mMWFjLTQzNmItODVjZC1jN2ZhNmQ3MWE3YWIiIHdpZHRoPSIxOCIgaGVpZ2h0PSIxOCIgdmlld0JveD0iMCAwIDE4IDE4Ij4mI3hhOyAgICA8ZGVmcz4mI3hhOyAgICAgICAgPGxpbmVhckdyYWRpZW50IGlkPSJhMmY1YTM5OS1lNTEzLTRiNWQtOWI1MC1lNWNiNjgwNjMyM2QiIHgxPSI5LjI0IiB5MT0iMC45NiIgeDI9IjguODUiIHkyPSIxNi41MiIgZ3JhZGllbnRVbml0cz0idXNlclNwYWNlT25Vc2UiPiYjeGE7ICAgICAgICAgICAgPHN0b3Agb2Zmc2V0PSIwIiBzdG9wLWNvbG9yPSIjMzJkNGY1Ii8+JiN4YTsgICAgICAgICAgICA8c3RvcCBvZmZzZXQ9IjAuMjMiIHN0b3AtY29sb3I9IiMzMWQwZjEiLz4mI3hhOyAgICAgICAgICAgIDxzdG9wIG9mZnNldD0iMC40NiIgc3RvcC1jb2xvcj0iIzJjYzNlNiIvPiYjeGE7ICAgICAgICAgICAgPHN0b3Agb2Zmc2V0PSIwLjciIHN0b3AtY29sb3I9IiMyNWFmZDQiLz4mI3hhOyAgICAgICAgICAgIDxzdG9wIG9mZnNldD0iMC45NCIgc3RvcC1jb2xvcj0iIzFjOTJiYSIvPiYjeGE7ICAgICAgICAgICAgPHN0b3Agb2Zmc2V0PSIxIiBzdG9wLWNvbG9yPSIjMTk4YWIzIi8+JiN4YTsgICAgICAgIDwvbGluZWFyR3JhZGllbnQ+JiN4YTsgICAgPC9kZWZzPiYjeGE7ICAgIDx0aXRsZT5JY29uLWFuYWx5dGljcy0xNTA8L3RpdGxlPiYjeGE7ICAgIDxwYXRoIGQ9Ik0xNy4xLDMuNkg5LjY5YS4zNC4zNCwwLDAsMS0uMjItLjA3TDcuMzUsMi4xMmEuNDMuNDMsMCwwLDAtLjIyLS4wNkguOWEuNC40LDAsMCwwLS40LjM5djEzLjFhLjQuNCwwLDAsMCwuNC4zOUgxNy4xYS40LjQsMCwwLDAsLjQtLjM5VjRBLjQuNCwwLDAsMCwxNy4xLDMuNloiIGZpbGw9IiMwMDViYTEiLz4mI3hhOyAgICA8cmVjdCB4PSIyLjA1IiB5PSIyLjgyIiB3aWR0aD0iMy44NiIgaGVpZ2h0PSIwLjc3IiByeD0iMC4xNiIgZmlsbD0iI2ZmZiIvPiYjeGE7ICAgIDxyZWN0IHg9IjIuMDUiIHk9IjIuODIiIHdpZHRoPSIwLjc3IiBoZWlnaHQ9IjAuNzciIHJ4PSIwLjExIiBmaWxsPSIjMWFjM2YyIi8+JiN4YTsgICAgPHBhdGggZD0iTTE3LjEsMy41OEg5YS4zNi4zNiwwLDAsMC0uMjguMTJMNy4zNyw1YS40My40MywwLDAsMS0uMjguMTFILjlhLjQuNCwwLDAsMC0uNC40djEwYS40LjQsMCwwLDAsLjQuMzlIMTcuMWEuNC40LDAsMCwwLC40LS4zOVY0QS40LjQsMCwwLDAsMTcuMSwzLjU4WiIgZmlsbD0idXJsKCNhMmY1YTM5OS1lNTEzLTRiNWQtOWI1MC1lNWNiNjgwNjMyM2QpIi8+JiN4YTsgICAgPHBhdGggZD0iTTEwLjE4LDUuN2EuMTUuMTUsMCwwLDAtLjA4LDBzLS4wOSwwLS4xMy4wN0w2LjgxLDEwLjM2YS4xNi4xNiwwLDAsMCwwLC4xNi4xOS4xOSwwLDAsMCwuMTUuMUg4LjgzTDgsMTMuNGEuMTMuMTMsMCwwLDAsLjA3LjE4LjEuMSwwLDAsMCwuMDcsMGMuMDYsMCwuMDksMCwuMTMtLjA3bDMuMjYtNC42NnMwLS4wNiwwLS4xYS4xNy4xNywwLDAsMC0uMTctLjE2aC0ybC44MS0yLjczQS4xMy4xMywwLDAsMCwxMC4xOCw1LjdaIiBmaWxsPSIjZmZmIi8+JiN4YTs8L3N2Zz4=" parent="1" vertex="1">
          <mxGeometry x="320" y="210" width="60" height="60" as="geometry" />
        </mxCell>
        <mxCell id="rdrlX59q383eema9n9BO-23" value="" style="shape=image;verticalLabelPosition=bottom;labelBackgroundColor=default;verticalAlign=top;aspect=fixed;imageAspect=0;image=data:image/svg+xml,PHN2ZyBzdHlsZT0iYmFja2dyb3VuZDogd2hpdGU7IiB2aWV3Qm94PSItMjUgLTI1IDYyNSA2MjUiIGlkPSJzdmdXb3JrZXJBcmVhIiBoZWlnaHQ9IjEwMCUiIHdpZHRoPSIxMDAlIiB4bWxuczp4bGluaz0iaHR0cDovL3d3dy53My5vcmcvMTk5OS94bGluayIgdmVyc2lvbj0iMS4xIiB4bWxucz0iaHR0cDovL3d3dy53My5vcmcvMjAwMC9zdmciPjxkZWZzIGlkPSJkZWZzZG9jIj48cGF0dGVybiBwYXR0ZXJuVHJhbnNmb3JtPSJyb3RhdGUoMzUpIiBwYXR0ZXJuVW5pdHM9InVzZXJTcGFjZU9uVXNlIiBoZWlnaHQ9IjEwIiB3aWR0aD0iMTAiIHk9IjAiIHg9IjAiIGlkPSJwYXR0ZXJuQm9vbCI+PGNpcmNsZSBzdHlsZT0ic3Ryb2tlOiBub25lO2ZpbGw6ICNmZjAwMDA3MDsiIHI9IjQiIGN5PSI1IiBjeD0iNSIvPjwvcGF0dGVybj48L2RlZnM+PGcgY2xhc3M9ImNvc2l0byIgaWQ9ImZpbGVJbXAtNDk0NDg3MjA2Ij48cGF0aCBkPSJNNjIuNSA0MTEuNTE2NEM5NC44OTE2IDM1MS44MDM2IDE1My45NDAzIDMyNC4yNjM3IDIwOS4wMjc5IDMzNi4zODEzIDIyNy4zMDk3IDM0MC4zNDIzIDI0NC40OTc3IDM0OS42MDA1IDI2Mi4xMzExIDM1Ni40Mjg4IDI3OS43NTY2IDM2My4yNTcxIDI5Ny4xNjM0IDM3Mi4wNjk5IDMxNS40NTMgMzc2LjI1NzUgMzI4LjQ0NTYgMzc5LjM0MzUgMzQyLjk5MjkgMzc3LjE0MDMgMzU2LjY0OTYgMzc1LjM3NDcgMzY5LjIxMjQgMzczLjgzNTYgMzcwLjc1MTYgMzY4Ljk5MTcgMzY0LjM2MDggMzU3Ljk3NTcgMzUwLjkyMjggMzM0LjgzNDQgMzM3LjI2NjEgMzExLjcwMDggMzIzLjgyMDUgMjg4LjU2NzQgMzIzLjgyMDUgMjg4LjU2NzMgMjYxLjY4NTcgMTgyLjE0MjIgMjYxLjY4NTcgMTgyLjE0MjIgMjU0Ljg1NzQgMTcwLjQ2MjIgMjUyLjg3MyAxNzAuNjg4NyAyNDYuMDQ0NiAxODIuMzYxIDI0Ni4wNDQ2IDE4Mi4zNjEgMTk2LjQ2NSAyNjYuOTcyOSAxOTYuNDY1IDI2Ni45NzMgMTk0LjkyNTkgMjY5LjYxMzYgMTkzLjgyNDMgMjcyLjY5OTcgMTkyLjcxNDkgMjc0LjkwMjkgMjA5LjY4NDIgMjgyLjQwMzEgMjI1Ljk5NzEgMjg4LjU2NzMgMjQxLjYzODMgMjk2LjQ5NzMgMjUwLjY2OTggMzAxLjEyMjQgMjU4LjU5OTcgMzA3Ljk1ODYgMjY2LjUzNzQgMzE0LjU2ODEgMjcwLjA1MzIgMzE3LjQyNzYgMjcxLjYwMDEgMzIyLjQ5OCAyNzQuMjQ4NiAzMjYuNDY3IDI2OS42MTU3IDMyNi4wMjE2IDI2NC43NzE4IDMyNi40NjY5IDI2MC4xNDY2IDMyNS4zNjU0IDI0Mi4wNzU4IDMyMS4xNzc3IDIyNC4yMzE1IDMxNC41NjgxIDIwNS45NDE5IDMxMi41ODM3IDE3My4zMzE1IDMwOS4wNjAxIDE0MS44MjI3IDMxNy44NzI5IDExMS4xOTY4IDMyOC4yMjQ4IDEwNy44OTIgMzI5LjMyNjQgMTAzLjkzMDkgMzI4LjQ0MzUgMTAwLjE4MDggMzI4LjQ0MzYgMTAxLjA2MzYgMzI1LjEzODggMTAxLjA2MzYgMzIxLjM5NjQgMTAyLjYwMjggMzE4LjUyOTIgMTQ4LjY1MSAyMzguMzMxNCAxOTUuNTkgMTU4LjEzMzcgMjQyLjUyMTEgNzguMTQ2OSAyNDkuNzg2OSA2NS41ODQgMjU3LjcyNDcgNjYuMDI5MyAyNjQuOTkwNSA3OC41ODQ0IDMyMC4wNzAzIDE3Mi42NzMyIDM3NC45MzkyIDI2Ni41MzU0IDQzMC4wMjY4IDM2MC42MTY1IDQ0Mi4xMzY1IDM4MS41NTQ2IDQ0MC4xNTk5IDM5NC4zMjg0IDQxOS40NDg0IDQwNi44ODM1IDM3Mi41MTcyIDQzNS43NTE1IDMyMy44MjA1IDQzOS40OTM4IDI3NC4wMjIxIDQxNC4xNTcxIDI2MS45MTIzIDQwNy45ODUgMjQ5LjM0OTQgNDAyLjkyMjQgMjM3LjIyNCAzOTYuNTMxNiAxOTguNDQ5NCAzNzYuMDM4OCAxNTguMzQ2NiAzNzYuMDM4OCAxMTcuODA2MyAzODkuNzAzMiAxMDIuODIxNSAzOTQuNTQ3MSA4OC41MDg2IDQwMS4zNzU1IDczLjk2MTMgNDA3LjExIDcxLjA5NCA0MDguMjAzOCA2OC4yMzQ1IDQwOS4zMTMyIDYyLjUgNDExLjUxNjQgNjIuNSA0MTEuNTE2NCA2Mi41IDQxMS41MTY0IDYyLjUgNDExLjUxNjQiIGNsYXNzPSJncm91cGVkIiBmaWxsPSIjMDA3OEQ0IiBpZD0icGF0aEltcC03MzUxMjU3MjQiLz48L2c+PC9zdmc+;" parent="1" vertex="1">
          <mxGeometry x="325" y="270" width="50" height="50" as="geometry" />
        </mxCell>
        <mxCell id="rdrlX59q383eema9n9BO-27" value="Bronze" style="text;html=1;strokeColor=none;fillColor=none;align=center;verticalAlign=middle;whiteSpace=wrap;rounded=0;fontStyle=0" parent="1" vertex="1">
          <mxGeometry x="-203.5" y="180" width="60" height="30" as="geometry" />
        </mxCell>
        <mxCell id="rdrlX59q383eema9n9BO-34" style="shape=image;editableCssRules=.*;image=data:image/svg+xml,PHN2ZyB2aWV3Qm94PSIwIDAgMjQgMjQiIHhtbG5zPSJodHRwOi8vd3d3LnczLm9yZy8yMDAwL3N2ZyI+PHN0eWxlPip7ZmlsbDojNTBBQkYxfTwvc3R5bGU+PHBhdGggZD0iTTEwLjk1MyAyMC4zOTFjLS45NS0xLjAxMy0uOTc4LTEuMDU3LS44MDctMS4yNDguMjctLjMwNCAxMS44MTEtMTAuODY4IDExLjk3Ny0xMC45NjQuMTQzLS4wODMgMS41NTguNiAxLjg2Ny45MDIuMTE5LjExNS0uOCAxLjA5OC01LjgxNyA2LjIxOC0zLjI3NyAzLjM0NS02LjAyMSA2LjA5NS02LjA5NyA2LjExMi0uMDc2LjAxNi0uNTgyLS40NDItMS4xMjMtMS4wMnpNOC4zMzMgMTcuN2MtLjUxMS0uNTE1LS44MzUtLjkyLS44MDMtMS4wMDMuMDU4LS4xNTIgNi42OTMtNS41MTUgNi44MTctNS41MS4xNTMuMDA1IDEuNzE0IDEuMTkxIDEuNzE0IDEuMzAyIDAgLjExNi02LjY3IDYuMDczLTYuOCA2LjA3My0uMDM4IDAtLjQ1Ni0uMzg4LS45MjgtLjg2MnpNNS45MSAxNS4yMjdjLS40LS40NDgtLjY1Mi0uODEtLjU5OC0uODYuMjgtLjI2IDMuMTY0LTIuMjYgMy4yNi0yLjI2LjE1NC4wMDIgMS41NDcgMS4xOTYgMS41NDcgMS4zMjcgMCAuMTYxLTMuMTI0IDIuNTY2LTMuMzM0IDIuNTY2LS4xIDAtLjQ5NC0uMzQ4LS44NzUtLjc3M3ptLTEuOTg4LTIuMDRjLS41NzQtLjU4LS42NDItLjY5LS41MTItLjgxLjE4Ny0uMTc0IDkuMzU3LTYuMDk0IDkuNTQ1LTYuMTYyLjE0Ni0uMDUzIDEuNDE3LjcxNiAxLjQxNy44NTggMCAuMTAyLTkuNDAxIDYuNjg1LTkuNjMgNi43NDQtLjA5MS4wMjMtLjQzNS0uMjQxLS44Mi0uNjN6bTYuMTE3LS45MzVjLS4zNzktLjMxNC0uNjg3LS42MjYtLjY4NC0uNjkyLjAwMi0uMDY2LjMzNy0uMzU0Ljc0My0uNjQuNDA2LS4yODUgMi4yMjctMS41ODcgNC4wNDYtMi44OTQgMS44Mi0xLjMwNyAzLjM4My0yLjM3NiAzLjQ3NC0yLjM3Ni4yNDUgMCAxLjQ4NS43MTcgMS40NDUuODM1LS4wNTcuMTczLTguMDEyIDYuMzM2LTguMTc5IDYuMzM3LS4wODYgMC0uNDY3LS4yNTYtLjg0NS0uNTd6bS03Ljk2My0uOTIzYy0uNDUyLS40NzgtLjUxOC0uNTkzLS40LS43MDEuMTAzLS4wOTMgNS43ODMtMy40NDkgNi40Ny0zLjgyMS4xMTQtLjA2MiAxLjMxOC44MDcgMS4yOC45MjItLjA1LjE1LTYuNDU2IDQuMTcyLTYuNjQ1IDQuMTcyLS4wOSAwLS40MDgtLjI1Ny0uNzA1LS41NzJabTEzLjczNS4wMzhjLS40MTYtLjI5OC0uNzcyLS41OS0uNzkyLS42NS0uMDI4LS4wODMgMy43NC0zLjIxNSA0LjU5NS0zLjgxOC4xNjYtLjExOC4yOTctLjA3OSAxLjAxLjMwMS40NS4yNC44MTguNDg1LjgxNy41NDUtLjAwMi4xNTItNC40ODcgNC4wOTgtNC43IDQuMTM1LS4wOTYuMDE2LS41MTUtLjIxNC0uOTMtLjUxM3pNLjU0NyA5LjcwNyAwIDkuMTU2bC4yNDMtLjE1OGMuMTMzLS4wODYgMi44NDEtMS41NjMgNi4wMTgtMy4yODJsNS43NzUtMy4xMjYuNTUzLjI3Yy4zMDMuMTUuNTUyLjMyMi41NTIuMzg0IDAgLjA4NC0xMS44NzUgNy4wMTgtMTIuMDIgNy4wMTgtLjAxNSAwLS4yNzQtLjI0OS0uNTc0LS41NTN6bTguODgtMi43OWMtLjI2OS0uMi0uNDg3LS40MTgtLjQ4Ny0uNDgzczEuMDgzLS43NTUgMi40MDYtMS41MzRsMi40MDUtMS40MTcuNjE3LjMzYy4zNC4xOC42MTcuMzYzLjYxNy40MDYgMCAuMTIyLTQuNzE1IDMuMDctNC45MDQgMy4wNjctLjA5Mi0uMDAxLS4zODctLjE2Ny0uNjU1LS4zNjhabTQuODE2LS42MTJjLS4zMjUtLjItLjU4OS0uNDE4LS41ODgtLjQ4NC4wMDItLjExMiAxLjY0LTEuMjA5IDEuOTA5LTEuMjc5LjEyMy0uMDMyIDEuMjI2LjU1IDEuMzE1LjY5NC4wMjcuMDQ0LS4wMzEuMTUtLjEyOC4yMzctLjMzMy4yOTYtMS43IDEuMjAyLTEuODEgMS4xOTktLjA2LS4wMDItLjM3NC0uMTY3LS42OTgtLjM2N3oiLz48L3N2Zz4=;rounded=0;dashed=1;strokeColor=default;align=center;verticalAlign=middle;fontFamily=Helvetica;fontSize=12;fontColor=default;fillColor=default;html=1;" parent="1" vertex="1">
          <mxGeometry x="-191.5" y="264" width="36" height="36" as="geometry" />
        </mxCell>
        <mxCell id="rdrlX59q383eema9n9BO-36" value="&lt;div&gt;Gold&lt;/div&gt;" style="text;html=1;strokeColor=none;fillColor=none;align=center;verticalAlign=middle;whiteSpace=wrap;rounded=0;fontStyle=0" parent="1" vertex="1">
          <mxGeometry x="320" y="180" width="60" height="30" as="geometry" />
        </mxCell>
        <mxCell id="rdrlX59q383eema9n9BO-37" value="Silver" style="text;html=1;strokeColor=none;fillColor=none;align=center;verticalAlign=middle;whiteSpace=wrap;rounded=0;fontStyle=0" parent="1" vertex="1">
          <mxGeometry x="116" y="180" width="60" height="30" as="geometry" />
        </mxCell>
        <mxCell id="rdrlX59q383eema9n9BO-40" value="Transform" style="text;html=1;strokeColor=none;fillColor=none;align=center;verticalAlign=middle;whiteSpace=wrap;rounded=0;fontSize=12;fontFamily=Helvetica;fontColor=default;fontStyle=0" parent="1" vertex="1">
          <mxGeometry x="170" y="210" width="160" height="30" as="geometry" />
        </mxCell>
        <mxCell id="rdrlX59q383eema9n9BO-46" style="edgeStyle=orthogonalEdgeStyle;rounded=0;orthogonalLoop=1;jettySize=auto;html=1;exitX=0.5;exitY=1;exitDx=0;exitDy=0;fontFamily=Helvetica;fontSize=12;fontColor=default;" parent="1" source="rdrlX59q383eema9n9BO-2" target="rdrlX59q383eema9n9BO-12" edge="1">
          <mxGeometry relative="1" as="geometry" />
        </mxCell>
        <mxCell id="rdrlX59q383eema9n9BO-2" value="" style="shape=image;verticalLabelPosition=bottom;verticalAlign=top;imageAspect=0;aspect=fixed;image=data:image/svg+xml,PHN2ZyB4bWxucz0iaHR0cDovL3d3dy53My5vcmcvMjAwMC9zdmciIGlkPSJmZTM3MjgzOS0wYjM1LTQ2YTUtYmFmNi01OTk4NzA1YzU1ZGYiIHdpZHRoPSIxOCIgaGVpZ2h0PSIxOCIgdmlld0JveD0iMCAwIDE4IDE4Ij4mI3hhOyAgPGRlZnM+JiN4YTsgICAgPGxpbmVhckdyYWRpZW50IGlkPSJiYmJhY2M1ZS05NDA5LTRmYzEtYTMxYS1iMDE4MWMzNmQ3MzEiIHgxPSIwLjUiIHkxPSI5Ljc3IiB4Mj0iOSIgeTI9IjkuNzciIGdyYWRpZW50VW5pdHM9InVzZXJTcGFjZU9uVXNlIj4mI3hhOyAgICAgIDxzdG9wIG9mZnNldD0iMCIgc3RvcC1jb2xvcj0iIzAwNWJhMSIvPiYjeGE7ICAgICAgPHN0b3Agb2Zmc2V0PSIwLjA3IiBzdG9wLWNvbG9yPSIjMDA2MGE5Ii8+JiN4YTsgICAgICA8c3RvcCBvZmZzZXQ9IjAuMzYiIHN0b3AtY29sb3I9IiMwMDcxYzgiLz4mI3hhOyAgICAgIDxzdG9wIG9mZnNldD0iMC41MiIgc3RvcC1jb2xvcj0iIzAwNzhkNCIvPiYjeGE7ICAgICAgPHN0b3Agb2Zmc2V0PSIwLjY0IiBzdG9wLWNvbG9yPSIjMDA3NGNkIi8+JiN4YTsgICAgICA8c3RvcCBvZmZzZXQ9IjAuODEiIHN0b3AtY29sb3I9IiMwMDZhYmIiLz4mI3hhOyAgICAgIDxzdG9wIG9mZnNldD0iMC45OSIgc3RvcC1jb2xvcj0iIzAwNWJhMSIvPiYjeGE7ICAgIDwvbGluZWFyR3JhZGllbnQ+JiN4YTsgIDwvZGVmcz4mI3hhOyAgPHRpdGxlPkljb24tYW5hbHl0aWNzLTE0NjwvdGl0bGU+JiN4YTsgIDxnPiYjeGE7ICAgIDxwYXRoIGQ9Ik0xMy4yNSwxMC40OFY2LjU3YS4xNC4xNCwwLDAsMC0uMjQtLjFsLTQsNEw0Ljg1LDE0LjYzVjE3LjVIMTYuOTNhLjU2LjU2LDAsMCwwLC41Ny0uNTdWNi41N2EuMTQuMTQsMCwwLDAtLjI0LS4xWiIgZmlsbD0iIzAwNWJhMSIvPiYjeGE7ICAgIDxwYXRoIGQ9Ik00Ljc1LDMuNThDMi40LDMuNTguNSwyLjg5LjUsMlY3LjY3aDB2OS4yNmEuNTYuNTYsMCwwLDAsLjU3LjU3SDlWMkM5LDIuODksNy4xLDMuNTgsNC43NSwzLjU4WiIgZmlsbD0idXJsKCNiYmJhY2M1ZS05NDA5LTRmYzEtYTMxYS1iMDE4MWMzNmQ3MzEpIi8+JiN4YTsgICAgPHJlY3QgeD0iMTIuOTEiIHk9IjEyLjk3IiB3aWR0aD0iMi4yNyIgaGVpZ2h0PSIyLjI3IiByeD0iMC4yOCIgZmlsbD0iI2ZmZiIvPiYjeGE7ICAgIDxyZWN0IHg9IjguOTciIHk9IjEyLjk3IiB3aWR0aD0iMi4yNyIgaGVpZ2h0PSIyLjI3IiByeD0iMC4yOCIgZmlsbD0iI2ZmZiIvPiYjeGE7ICAgIDxyZWN0IHg9IjUuMDMiIHk9IjEyLjk3IiB3aWR0aD0iMi4yNyIgaGVpZ2h0PSIyLjI3IiByeD0iMC4yOCIgZmlsbD0iI2ZmZiIvPiYjeGE7ICAgIDxwYXRoIGQ9Ik05LDJjMCwuODUtMS45LDEuNTQtNC4yNSwxLjU0Uy41LDIuODkuNSwyLDIuNC41LDQuNzUuNSw5LDEuMTksOSwyIiBmaWxsPSIjZWFlYWVhIi8+JiN4YTsgICAgPHBhdGggZD0iTTgsMS45MWMwLC41NS0xLjQ2LDEtMy4yNiwxcy0zLjI2LS40My0zLjI2LTFTMywuOTQsNC43NS45NCw4LDEuMzcsOCwxLjkxIiBmaWxsPSIjNTBlNmZmIi8+JiN4YTsgICAgPHBhdGggZD0iTTQuNzUsMi4xNGE4LjA3LDguMDcsMCwwLDAtMi41OC4zNyw3LjY0LDcuNjQsMCwwLDAsMi41OC4zOCw3LjY0LDcuNjQsMCwwLDAsMi41OC0uMzhBOC4wNyw4LjA3LDAsMCwwLDQuNzUsMi4xNFoiIGZpbGw9IiMxOThhYjMiLz4mI3hhOyAgPC9nPiYjeGE7PC9zdmc+" parent="1" vertex="1">
          <mxGeometry x="-320" y="60" width="50" height="50" as="geometry" />
        </mxCell>
        <mxCell id="rdrlX59q383eema9n9BO-41" value="Extract and Load" style="text;html=1;strokeColor=none;fillColor=none;align=center;verticalAlign=middle;whiteSpace=wrap;rounded=0;fontSize=12;fontFamily=Helvetica;fontColor=default;fontStyle=0" parent="1" vertex="1">
          <mxGeometry x="-375" y="210" width="160" height="30" as="geometry" />
        </mxCell>
        <mxCell id="rdrlX59q383eema9n9BO-42" value="Delta" style="text;html=1;strokeColor=none;fillColor=none;align=center;verticalAlign=middle;whiteSpace=wrap;rounded=0;fontSize=12;fontFamily=Helvetica;fontColor=default;" parent="1" vertex="1">
          <mxGeometry x="116" y="300" width="60" height="30" as="geometry" />
        </mxCell>
        <mxCell id="rdrlX59q383eema9n9BO-43" value="Delta" style="text;html=1;strokeColor=none;fillColor=none;align=center;verticalAlign=middle;whiteSpace=wrap;rounded=0;fontSize=12;fontFamily=Helvetica;fontColor=default;" parent="1" vertex="1">
          <mxGeometry x="315" y="300" width="70" height="30" as="geometry" />
        </mxCell>
        <mxCell id="rdrlX59q383eema9n9BO-45" value="Azure Data Factory" style="text;html=1;strokeColor=none;fillColor=none;align=center;verticalAlign=middle;whiteSpace=wrap;rounded=0;fontSize=12;fontFamily=Helvetica;fontColor=default;" parent="1" vertex="1">
          <mxGeometry x="-360" y="30" width="130" height="30" as="geometry" />
        </mxCell>
        <mxCell id="rdrlX59q383eema9n9BO-54" value="Azure SQL" style="text;html=1;strokeColor=none;fillColor=none;align=center;verticalAlign=middle;whiteSpace=wrap;rounded=0;fontSize=12;fontFamily=Helvetica;fontColor=default;" parent="1" vertex="1">
          <mxGeometry x="-472.5" y="263" width="130" height="30" as="geometry" />
        </mxCell>
        <mxCell id="rdrlX59q383eema9n9BO-55" value="DBT" style="text;html=1;strokeColor=none;fillColor=none;align=center;verticalAlign=middle;whiteSpace=wrap;rounded=0;fontSize=12;fontFamily=Helvetica;fontColor=default;" parent="1" vertex="1">
          <mxGeometry x="170" y="440" width="130" height="30" as="geometry" />
        </mxCell>
        <mxCell id="rdrlX59q383eema9n9BO-56" value="Azure Databricks" style="text;html=1;strokeColor=none;fillColor=none;align=center;verticalAlign=middle;whiteSpace=wrap;rounded=0;fontSize=12;fontFamily=Helvetica;fontColor=default;" parent="1" vertex="1">
          <mxGeometry x="170" y="30" width="130" height="30" as="geometry" />
        </mxCell>
        <mxCell id="rdrlX59q383eema9n9BO-57" value="Azure Key Vault" style="text;html=1;strokeColor=none;fillColor=none;align=center;verticalAlign=middle;whiteSpace=wrap;rounded=0;fontSize=12;fontFamily=Helvetica;fontColor=default;" parent="1" vertex="1">
          <mxGeometry x="25" y="30" width="130" height="30" as="geometry" />
        </mxCell>
        <mxCell id="rdrlX59q383eema9n9BO-59" value="Parquet" style="text;html=1;strokeColor=none;fillColor=none;align=center;verticalAlign=middle;whiteSpace=wrap;rounded=0;fontSize=12;fontFamily=Helvetica;fontColor=default;" parent="1" vertex="1">
          <mxGeometry x="-203.49999999999997" y="290" width="60" height="30" as="geometry" />
        </mxCell>
      </root>
    </mxGraphModel>
  </diagram>
</mxfile>
